<svg xmlns="http://www.w3.org/2000/svg" version="1.1" xmlns:xlink="http://www.w3.org/1999/xlink" xmlns:svgjs="http://svgjs.dev/svgjs" width="1280" height="720" preserveAspectRatio="none" viewBox="0 0 1280 720">
    <g mask="url(&quot;#SvgjsMask1048&quot;)" fill="none">
        <rect width="1280" height="720" x="0" y="0" fill="rgba(97, 71, 50, 1)"></rect>
        <path d="M -1249.4533347131853,288 C -1121.45,358.4 -865.45,662 -609.4533347131853,640 C -353.45,618 -225.45,190.8 30.546665286814687,178 C 286.55,165.2 420.66,557 670.5466652868147,576 C 920.44,595 1158.11,333.6 1280,273" stroke="rgba(242, 216, 194, 0.1)" stroke-width="2"></path>
        <path d="M -283.8930816215076,532 C -155.89,490.8 100.11,308.4 356.1069183784924,326 C 612.11,343.6 740.11,665 996.1069183784924,620 C 1252.11,575 1579.33,114 1636.1069183784925,101 C 1692.89,88 1351.22,464.2 1280,555" stroke="rgba(242, 216, 194, 0.1)" stroke-width="2"></path>
        <path d="M -566.5809216978811,186 C -438.58,226.4 -182.58,405.2 73.41907830211895,388 C 329.42,370.8 457.42,76.4 713.4190783021189,100 C 969.42,123.6 1240.1,488.8 1353.419078302119,506 C 1466.74,523.2 1294.68,250 1280,186" stroke="rgba(242, 216, 194, 0.1)" stroke-width="2"></path>
        <path d="M -10.80399406097456,501 C 117.2,451.6 373.2,268.8 629.1960059390254,254 C 885.2,239.2 1013.2,457.2 1269.1960059390253,427 C 1525.2,396.8 1907.04,90.8 1909.1960059390253,103 C 1911.36,115.2 1405.84,411 1280,488" stroke="rgba(242, 216, 194, 0.1)" stroke-width="2"></path>
    </g>
    <defs>
        <mask id="SvgjsMask1048">
            <rect width="1280" height="720" fill="#ffffff"></rect>
        </mask>
    </defs>
</svg>