<svg xmlns="http://www.w3.org/2000/svg" version="1.1" xmlns:xlink="http://www.w3.org/1999/xlink" xmlns:svgjs="http://svgjs.dev/svgjs" width="360" height="640" preserveAspectRatio="none" viewBox="0 0 360 640"><g mask="url(&quot;#SvgjsMask1120&quot;)" fill="none"><rect width="360" height="640" x="0" y="0" fill="rgba(97, 71, 50, 1)"></rect><path d="M -206.4233386983473,238 C -170.42,274.6 -98.42,458 -26.42333869834729,421 C 45.58,384 81.58,35 153.5766613016527,53 C 225.58,71 292.29,503.4 333.57666130165273,511 C 374.86,518.6 354.72,175 360,91" stroke="rgba(242, 216, 194, 0.1)" stroke-width="2"></path><path d="M -156.3988750443456,78 C -120.4,139.8 -48.4,381 23.601124955654402,387 C 95.6,393 131.6,89.2 203.6011249556544,108 C 275.6,126.8 352.32,478.2 383.6011249556544,481 C 414.88,483.8 364.72,193.8 360,122" stroke="rgba(242, 216, 194, 0.1)" stroke-width="2"></path><path d="M -54.709778928229454,169 C -18.71,214 53.29,380.8 125.29022107177055,394 C 197.29,407.2 233.29,228.4 305.29022107177053,235 C 377.29,241.6 474.35,422.8 485.29022107177053,427 C 496.23,431.2 385.06,290.2 360,256" stroke="rgba(242, 216, 194, 0.1)" stroke-width="2"></path><path d="M -199.27702096160277,121 C -163.28,181.8 -91.28,422.4 -19.277020961602762,425 C 52.72,427.6 88.72,127 160.72297903839723,134 C 232.72,141 300.87,480 340.7229790383972,460 C 380.58,440 356.14,119.2 360,34" stroke="rgba(242, 216, 194, 0.1)" stroke-width="2"></path><path d="M -327.59654427054795,446 C -291.6,397.4 -219.6,208.6 -147.59654427054798,203 C -75.6,197.4 -39.6,414 32.40345572945202,418 C 104.4,422 146.88,235.6 212.40345572945202,223 C 277.92,210.4 330.48,328.6 360,355" stroke="rgba(242, 216, 194, 0.1)" stroke-width="2"></path></g><defs><mask id="SvgjsMask1120"><rect width="360" height="640" fill="#ffffff"></rect></mask></defs></svg>