<svg xmlns="http://www.w3.org/2000/svg" xmlns:xlink="http://www.w3.org/1999/xlink" fill="none" version="1.1" width="16" height="16" viewBox="0 0 16 16"><defs><linearGradient x1="0.5" y1="0" x2="0.5" y2="1" id="master_svg0_132_206"><stop offset="0%" stop-color="#E4CCB8" stop-opacity="1"/><stop offset="49.31506812572479%" stop-color="#F2D8C2" stop-opacity="1"/><stop offset="100%" stop-color="#F2D8C2" stop-opacity="1"/></linearGradient><clipPath id="master_svg1_132_152"><rect x="0" y="0" width="16" height="16" rx="3"/></clipPath></defs><g clip-path="url(#master_svg1_132_152)"><rect x="0" y="0" width="16" height="16" rx="3" fill="url(#master_svg0_132_206)" fill-opacity="1"/><g><path d="M2,1.060062C2.840845,1.060062,2.899724,1.486008,2.899724,2.6681999999999997L2.899724,5.33207C2.899724,6.51399,2.840845,6.93994,2,6.93994L2,7L9,7L9,6.00993L8.902560000000001,6.00993C8.902560000000001,6.87404,5.920640000000001,6.93994,4.9918700000000005,6.93994L3.74059,6.93994L3.74059,3.73612C3.89688,3.61017,4.1411,3.52009,4.42467,3.52595C5.11878,3.53818,5.61753,4.05394,6.8104,4.05394C7.58246,4.05394,8.061720000000001,3.74808,8.061720000000001,3.39416L7.9639,3.39416C7.9639,3.60407,7.61188,3.73612,7.24037,3.73612C6.38004,3.73612,5.84226,3.36411,4.87456,3.36411C4.42467,3.36411,4.033720000000001,3.46615,3.74059,3.63995L3.74059,1.060062L5.363379999999999,1.060062C7.61188,1.060062,8.902560000000001,1.384234,8.902560000000001,1.785996L8.902560000000001,1.810179L9,1.810179L9,1L2,1L2,1.060062Z" fill="#26150F" fill-opacity="1"/></g><g><path d="M8,13.93994L8,14L10.26582,14L10.26582,13.93994C9.54412,13.93994,9.49394,13.51399,9.49394,12.33207L9.49394,11.05394C9.49394,10.772,9.64485,10.52595,10.08113,10.52595C10.67685,10.52595,11.10497,11.05394,12.12881,11.05394C12.79143,11.05394,13.202829999999999,10.74808,13.202829999999999,10.39416L13.118829999999999,10.39416C13.118829999999999,10.60407,12.81673,10.73612,12.49786,10.73612C11.75943,10.73612,11.29786,10.36411,10.46728,10.36411C9.96372,10.36411,9.5943,10.55597,9.49394,10.71807L9.49394,8.060062L10.8783,8.060062C12.80816,8.060062,13.916,8.384234,13.916,8.785996L13.916,8.810179L14,8.810179L14,8L8,8L8,8.060062C8.721739,8.060062,8.772245999999999,8.486008,8.772245999999999,9.6682L8.772245999999999,12.33207C8.772245999999999,13.51399,8.721739,13.93994,8,13.93994Z" fill="#26150F" fill-opacity="1"/></g></g></svg>