<svg width="400" height="400" viewBox="0 0 400 400" fill="none" xmlns="http://www.w3.org/2000/svg">
<path d="M198.63 285.38L199.13 79.2815" stroke="#594834"/>
<path d="M88.5857 123.243C99.1482 123.243 99.8878 131.962 99.8878 156.16V210.686C99.8878 234.878 99.1482 243.597 88.5857 243.597V244.826H176.518V224.561H175.294C175.294 242.248 137.836 243.597 126.169 243.597H110.45V178.019C112.414 175.441 115.482 173.597 119.044 173.717C127.763 173.967 134.028 184.524 149.013 184.524C158.711 184.524 164.732 178.264 164.732 171.019H163.502C163.502 175.316 159.08 178.019 154.414 178.019C143.607 178.019 136.851 170.404 124.695 170.404C119.044 170.404 114.133 172.493 110.45 176.05V123.243H130.836C159.08 123.243 175.294 129.878 175.294 138.102V138.597H176.518V122.014H88.5857V123.243Z" fill="#594834"/>
<path d="M219.86 243.597V244.826H253.022V243.597C242.459 243.597 241.725 234.878 241.725 210.686V184.524C241.725 178.753 243.933 173.717 250.319 173.717C259.037 173.717 265.303 184.524 280.287 184.524C289.985 184.524 296.006 178.264 296.006 171.019H294.777C294.777 175.316 290.355 178.019 285.688 178.019C274.881 178.019 268.126 170.404 255.97 170.404C248.6 170.404 243.194 174.331 241.725 177.649V123.243H261.985C290.23 123.243 306.444 129.878 306.444 138.102V138.597H307.673V122.014H219.86V123.243C230.423 123.243 231.162 131.962 231.162 156.16V210.686C231.162 234.878 230.423 243.597 219.86 243.597Z" fill="#594834"/>
<path d="M53 169.438H346.255V203.594H53V169.438Z" fill="url(#paint0_linear_32_280)"/>
<path d="M130.737 351.654C129.623 351.654 128.623 351.415 127.737 350.925C126.847 350.425 126.144 349.748 125.633 348.883C125.133 348.008 124.883 347.029 124.883 345.946C124.883 344.878 125.133 343.904 125.633 343.029C126.144 342.154 126.847 341.477 127.737 340.987C128.639 340.503 129.644 340.258 130.758 340.258C131.592 340.258 132.352 340.399 133.05 340.675C133.758 340.956 134.352 341.357 134.842 341.883L134.092 342.633C133.217 341.748 132.112 341.3 130.779 341.3C129.904 341.3 129.097 341.508 128.362 341.925C127.639 342.331 127.071 342.883 126.654 343.592C126.248 344.29 126.05 345.071 126.05 345.946C126.05 346.821 126.248 347.612 126.654 348.321C127.071 349.029 127.639 349.586 128.362 349.987C129.097 350.394 129.904 350.592 130.779 350.592C132.123 350.592 133.227 350.144 134.092 349.237L134.842 350.008C134.352 350.54 133.758 350.946 133.05 351.237C132.342 351.519 131.571 351.654 130.737 351.654Z" fill="#594834"/>
<path d="M150.137 351.55L147.575 347.946C147.283 347.988 146.981 348.008 146.679 348.008H143.658V351.55H142.491V340.342H146.679C148.106 340.342 149.226 340.691 150.033 341.383C150.835 342.066 151.241 343.003 151.241 344.196C151.241 345.071 151.017 345.811 150.575 346.404C150.142 347.003 149.517 347.441 148.7 347.717L151.429 351.55H150.137ZM146.637 346.988C147.746 346.988 148.595 346.748 149.179 346.258C149.773 345.758 150.075 345.071 150.075 344.196C150.075 343.279 149.773 342.587 149.179 342.113C148.595 341.628 147.746 341.383 146.637 341.383H143.658V346.988H146.637Z" fill="#594834"/>
<path d="M163.351 340.342C164.778 340.342 165.898 340.691 166.705 341.383C167.507 342.066 167.913 343.003 167.913 344.196C167.913 345.394 167.507 346.331 166.705 347.008C165.898 347.675 164.778 348.008 163.351 348.008H160.33V351.55H159.163V340.342H163.351ZM163.309 346.967C164.419 346.967 165.267 346.727 165.851 346.238C166.445 345.753 166.747 345.071 166.747 344.196C166.747 343.279 166.445 342.587 165.851 342.113C165.267 341.628 164.419 341.383 163.309 341.383H160.33V346.967H163.309Z" fill="#594834"/>
<path d="M187.155 340.342V351.55H186.01V341.383H183.364V340.342H187.155Z" fill="#594834"/>
<path d="M202.827 340.342V341.175L198.14 351.55H196.89L201.515 341.383H195.744V343.467H194.619V340.342H202.827Z" fill="#594834"/>
<path d="M213.501 338.071H214.543L209.272 353.154H208.23L213.501 338.071Z" fill="#594834"/>
<path d="M227.819 340.342V341.175L223.132 351.55H221.882L226.507 341.383H220.736V343.467H219.611V340.342H227.819Z" fill="#594834"/>
<path d="M237.389 344.946C239.014 344.946 240.191 345.238 240.931 345.821C241.681 346.404 242.056 347.217 242.056 348.258C242.056 348.915 241.899 349.498 241.597 350.008C241.29 350.508 240.832 350.915 240.222 351.217C239.608 351.508 238.868 351.654 237.993 351.654C237.186 351.654 236.42 351.524 235.701 351.258C234.977 350.998 234.399 350.644 233.972 350.196L234.535 349.3C234.91 349.675 235.394 349.988 235.993 350.238C236.602 350.477 237.264 350.592 237.972 350.592C238.899 350.592 239.618 350.383 240.118 349.967C240.629 349.55 240.889 348.998 240.889 348.3C240.889 347.54 240.597 346.962 240.014 346.571C239.441 346.17 238.483 345.967 237.139 345.967H234.764L235.326 340.342H241.451V341.383H236.347L235.951 344.946H237.389Z" fill="#594834"/>
<path d="M256.257 350.529V351.55H248.403V350.737L253.049 346.175C253.643 345.592 254.049 345.092 254.257 344.675C254.466 344.258 254.57 343.836 254.57 343.404C254.57 342.737 254.341 342.227 253.882 341.862C253.424 341.487 252.778 341.3 251.945 341.3C250.622 341.3 249.601 341.717 248.882 342.55L248.07 341.862C248.497 341.352 249.054 340.956 249.736 340.675C250.414 340.399 251.179 340.258 252.028 340.258C253.164 340.258 254.07 340.529 254.736 341.071C255.403 341.602 255.736 342.336 255.736 343.279C255.736 343.852 255.611 344.404 255.361 344.946C255.111 345.477 254.622 346.086 253.903 346.779L250.091 350.529H256.257Z" fill="#594834"/>
<path d="M269.22 345.675C269.928 345.915 270.47 346.269 270.845 346.737C271.22 347.211 271.408 347.774 271.408 348.425C271.408 349.081 271.225 349.649 270.866 350.133C270.517 350.623 270.017 350.998 269.366 351.258C268.71 351.524 267.939 351.654 267.053 351.654C265.705 351.654 264.647 351.373 263.887 350.8C263.121 350.217 262.741 349.425 262.741 348.425C262.741 347.758 262.918 347.196 263.283 346.737C263.658 346.269 264.199 345.915 264.908 345.675C264.324 345.456 263.876 345.133 263.574 344.717C263.283 344.29 263.137 343.79 263.137 343.217C263.137 342.316 263.491 341.602 264.199 341.071C264.908 340.529 265.856 340.258 267.053 340.258C267.845 340.258 268.533 340.378 269.116 340.612C269.71 340.852 270.178 341.196 270.512 341.654C270.845 342.102 271.012 342.623 271.012 343.217C271.012 343.79 270.85 344.29 270.533 344.717C270.225 345.133 269.788 345.456 269.22 345.675ZM264.283 343.237C264.283 343.862 264.522 344.357 265.012 344.717C265.512 345.081 266.189 345.258 267.053 345.258C267.913 345.258 268.595 345.081 269.095 344.717C269.595 344.357 269.845 343.873 269.845 343.258C269.845 342.633 269.585 342.144 269.074 341.779C268.574 341.42 267.897 341.237 267.053 341.237C266.205 341.237 265.533 341.42 265.033 341.779C264.533 342.144 264.283 342.628 264.283 343.237ZM267.053 350.675C268.053 350.675 268.83 350.477 269.387 350.071C269.939 349.654 270.22 349.102 270.22 348.404C270.22 347.727 269.939 347.185 269.387 346.779C268.83 346.378 268.053 346.175 267.053 346.175C266.08 346.175 265.309 346.378 264.741 346.779C264.184 347.185 263.908 347.727 263.908 348.404C263.908 349.112 264.184 349.67 264.741 350.071C265.293 350.477 266.064 350.675 267.053 350.675Z" fill="#594834"/>
<path d="M67.3732 191.766V193.016H57.7898V179.453H67.0815V180.703H59.2273V185.516H66.2273V186.745H59.2273V191.766H67.3732Z" fill="#594834"/>
<path d="M80.671 193.141C79.6554 193.141 78.6815 192.984 77.7544 192.661C76.8377 192.328 76.1294 191.901 75.6294 191.37L76.1919 190.266C76.6762 190.755 77.3221 191.151 78.1294 191.453C78.9471 191.76 79.796 191.911 80.671 191.911C81.8794 191.911 82.7804 191.693 83.3794 191.245C83.9887 190.802 84.296 190.224 84.296 189.516C84.296 188.974 84.1294 188.547 83.796 188.224C83.4731 187.891 83.0721 187.641 82.5877 187.474C82.1137 187.297 81.4523 187.099 80.6085 186.891C79.5773 186.641 78.7596 186.401 78.1502 186.161C77.5512 185.911 77.0356 185.547 76.6085 185.057C76.1762 184.557 75.9627 183.891 75.9627 183.057C75.9627 182.38 76.1398 181.76 76.5044 181.203C76.8637 180.635 77.4106 180.182 78.1502 179.849C78.9002 179.505 79.8273 179.328 80.9419 179.328C81.7179 179.328 82.4731 179.443 83.2127 179.661C83.9627 179.87 84.6085 180.161 85.1502 180.536L84.671 181.682C84.0981 181.307 83.4887 181.031 82.8377 180.849C82.1971 180.656 81.5669 180.557 80.9419 180.557C79.7596 180.557 78.8637 180.786 78.2544 181.245C77.6554 181.703 77.3585 182.297 77.3585 183.016C77.3585 183.557 77.5252 183.995 77.8585 184.328C78.1919 184.661 78.5981 184.922 79.0877 185.099C79.5877 185.266 80.2596 185.453 81.1085 185.661C82.1085 185.901 82.9106 186.141 83.5252 186.391C84.1346 186.63 84.6502 186.99 85.0669 187.474C85.494 187.948 85.7127 188.599 85.7127 189.432C85.7127 190.115 85.5252 190.74 85.1502 191.307C84.7856 191.865 84.2231 192.307 83.4627 192.641C82.6971 192.974 81.7648 193.141 80.671 193.141Z" fill="#594834"/>
<path d="M97.6316 180.703H92.8816V179.453H103.84V180.703H99.0691V193.016H97.6316V180.703Z" fill="#594834"/>
<path d="M121.882 191.766V193.016H112.298V179.453H121.59V180.703H113.736V185.516H120.736V186.745H113.736V191.766H121.882Z" fill="#594834"/>
<path d="M140.7 193.016L137.596 188.661C137.247 188.703 136.888 188.724 136.513 188.724H132.867V193.016H131.429V179.453H136.513C138.231 179.453 139.586 179.87 140.575 180.703C141.56 181.526 142.054 182.656 142.054 184.099C142.054 185.156 141.783 186.052 141.242 186.786C140.7 187.526 139.935 188.052 138.95 188.37L142.263 193.016H140.7ZM136.471 187.495C137.815 187.495 138.846 187.198 139.554 186.599C140.263 186.005 140.617 185.172 140.617 184.099C140.617 183.005 140.263 182.161 139.554 181.578C138.846 180.995 137.815 180.703 136.471 180.703H132.867V187.495H136.471Z" fill="#594834"/>
<path d="M340.63 198.82L57.6326 197.655" stroke="#594834"/>
<path d="M164.295 180.703V186.016H171.295V187.266H164.295V193.016H162.857V179.453H172.149V180.703H164.295Z" fill="#594834"/>
<path d="M181.292 179.453H182.729V193.016H181.292V179.453Z" fill="#594834"/>
<path d="M202.88 186.245H204.255V191.411C203.614 191.969 202.859 192.401 201.984 192.703C201.12 192.995 200.219 193.141 199.276 193.141C197.911 193.141 196.693 192.844 195.609 192.245C194.526 191.651 193.672 190.823 193.047 189.766C192.422 188.714 192.109 187.536 192.109 186.245C192.109 184.943 192.422 183.76 193.047 182.703C193.672 181.651 194.526 180.823 195.609 180.224C196.693 179.63 197.911 179.328 199.276 179.328C200.318 179.328 201.266 179.495 202.13 179.828C202.989 180.161 203.719 180.651 204.318 181.286L203.422 182.203C202.349 181.151 200.989 180.62 199.338 180.62C198.239 180.62 197.245 180.865 196.359 181.349C195.484 181.839 194.786 182.51 194.276 183.37C193.776 184.219 193.526 185.177 193.526 186.245C193.526 187.302 193.776 188.26 194.276 189.12C194.786 189.969 195.484 190.635 196.359 191.12C197.234 191.609 198.219 191.849 199.318 191.849C200.719 191.849 201.906 191.505 202.88 190.807V186.245Z" fill="#594834"/>
<path d="M219.92 193.141C218.17 193.141 216.8 192.641 215.816 191.641C214.826 190.63 214.337 189.156 214.337 187.224V179.453H215.774V187.161C215.774 188.745 216.129 189.927 216.837 190.703C217.556 191.469 218.587 191.849 219.92 191.849C221.28 191.849 222.316 191.469 223.024 190.703C223.733 189.927 224.087 188.745 224.087 187.161V179.453H225.483V187.224C225.483 189.156 224.993 190.63 224.024 191.641C223.05 192.641 221.681 193.141 219.92 193.141Z" fill="#594834"/>
<path d="M245.557 191.766V193.016H235.974V179.453H245.266V180.703H237.412V185.516H244.412V186.745H237.412V191.766H245.557Z" fill="#594834"/>
<path d="M255.105 179.453H256.543V193.016H255.105V179.453Z" fill="#594834"/>
<path d="M276.402 193.016L273.298 188.661C272.949 188.703 272.589 188.724 272.214 188.724H268.569V193.016H267.131V179.453H272.214C273.933 179.453 275.287 179.87 276.277 180.703C277.261 181.526 277.756 182.656 277.756 184.099C277.756 185.156 277.485 186.052 276.944 186.786C276.402 187.526 275.636 188.052 274.652 188.37L277.964 193.016H276.402ZM272.173 187.495C273.517 187.495 274.548 187.198 275.256 186.599C275.964 186.005 276.319 185.172 276.319 184.099C276.319 183.005 275.964 182.161 275.256 181.578C274.548 180.995 273.517 180.703 272.173 180.703H268.569V187.495H272.173Z" fill="#594834"/>
<path d="M296.891 191.766V193.016H287.308V179.453H296.599V180.703H288.745V185.516H295.745V186.745H288.745V191.766H296.891Z" fill="#594834"/>
<path d="M306.439 179.453H311.959C313.386 179.453 314.652 179.745 315.751 180.328C316.845 180.901 317.699 181.698 318.314 182.724C318.923 183.755 319.23 184.927 319.23 186.245C319.23 187.552 318.923 188.719 318.314 189.745C317.699 190.776 316.845 191.578 315.751 192.161C314.652 192.734 313.386 193.016 311.959 193.016H306.439V179.453ZM311.876 191.766C313.069 191.766 314.11 191.536 315.001 191.078C315.886 190.609 316.574 189.953 317.064 189.12C317.564 188.286 317.814 187.328 317.814 186.245C317.814 185.151 317.564 184.182 317.064 183.349C316.574 182.516 315.886 181.87 315.001 181.411C314.11 180.943 313.069 180.703 311.876 180.703H307.876V191.766H311.876Z" fill="#594834"/>
<path d="M334.546 193.141C333.197 193.141 331.974 192.844 330.88 192.245C329.796 191.635 328.942 190.807 328.317 189.766C327.703 188.714 327.401 187.536 327.401 186.245C327.401 184.943 327.703 183.766 328.317 182.724C328.942 181.672 329.796 180.844 330.88 180.245C331.974 179.635 333.197 179.328 334.546 179.328C335.88 179.328 337.088 179.63 338.171 180.224C339.255 180.823 340.099 181.651 340.713 182.703C341.338 183.76 341.651 184.943 341.651 186.245C341.651 187.536 341.338 188.714 340.713 189.766C340.099 190.823 339.255 191.651 338.171 192.245C337.088 192.844 335.88 193.141 334.546 193.141ZM334.546 191.849C335.614 191.849 336.578 191.609 337.442 191.12C338.302 190.635 338.974 189.969 339.463 189.12C339.963 188.26 340.213 187.302 340.213 186.245C340.213 185.177 339.963 184.219 339.463 183.37C338.974 182.51 338.302 181.839 337.442 181.349C336.578 180.865 335.614 180.62 334.546 180.62C333.463 180.62 332.484 180.865 331.609 181.349C330.744 181.839 330.067 182.51 329.567 183.37C329.067 184.219 328.817 185.177 328.817 186.245C328.817 187.302 329.067 188.26 329.567 189.12C330.067 189.969 330.744 190.635 331.609 191.12C332.484 191.609 333.463 191.849 334.546 191.849Z" fill="#594834"/>
<path d="M121.545 304.525C123.264 304.525 124.618 304.941 125.608 305.775C126.592 306.598 127.087 307.728 127.087 309.17C127.087 310.618 126.592 311.749 125.608 312.566C124.618 313.389 123.264 313.795 121.545 313.795H117.899V318.087H116.462V304.525H121.545ZM121.504 312.545C122.847 312.545 123.879 312.254 124.587 311.67C125.295 311.077 125.649 310.243 125.649 309.17C125.649 308.077 125.295 307.233 124.587 306.65C123.879 306.066 122.847 305.775 121.504 305.775H117.899V312.545H121.504Z" fill="#594834"/>
<path d="M140.291 318.212C139.276 318.212 138.302 318.056 137.375 317.733C136.458 317.4 135.75 316.973 135.25 316.441L135.812 315.337C136.297 315.827 136.942 316.223 137.75 316.525C138.567 316.832 139.416 316.983 140.291 316.983C141.5 316.983 142.401 316.764 143 316.316C143.609 315.874 143.916 315.295 143.916 314.587C143.916 314.045 143.75 313.618 143.416 313.295C143.094 312.962 142.692 312.712 142.208 312.545C141.734 312.368 141.073 312.17 140.229 311.962C139.198 311.712 138.38 311.473 137.771 311.233C137.172 310.983 136.656 310.618 136.229 310.129C135.797 309.629 135.583 308.962 135.583 308.129C135.583 307.452 135.76 306.832 136.125 306.275C136.484 305.707 137.031 305.254 137.771 304.92C138.521 304.577 139.448 304.4 140.562 304.4C141.338 304.4 142.094 304.514 142.833 304.733C143.583 304.941 144.229 305.233 144.771 305.608L144.291 306.754C143.719 306.379 143.109 306.103 142.458 305.92C141.817 305.728 141.187 305.629 140.562 305.629C139.38 305.629 138.484 305.858 137.875 306.316C137.276 306.775 136.979 307.368 136.979 308.087C136.979 308.629 137.146 309.066 137.479 309.4C137.812 309.733 138.219 309.993 138.708 310.17C139.208 310.337 139.88 310.525 140.729 310.733C141.729 310.973 142.531 311.212 143.146 311.462C143.755 311.702 144.271 312.061 144.687 312.545C145.114 313.019 145.333 313.67 145.333 314.504C145.333 315.186 145.146 315.811 144.771 316.379C144.406 316.936 143.844 317.379 143.083 317.712C142.317 318.045 141.385 318.212 140.291 318.212Z" fill="#594834"/>
<path d="M154.627 304.525H156.065V318.087H154.627V304.525Z" fill="#594834"/>
<path d="M172.549 318.212C171.2 318.212 169.986 317.915 168.903 317.316C167.83 316.723 166.986 315.894 166.361 314.837C165.747 313.785 165.445 312.608 165.445 311.316C165.445 310.014 165.747 308.832 166.361 307.775C166.986 306.723 167.841 305.894 168.924 305.295C170.007 304.702 171.221 304.4 172.57 304.4C173.57 304.4 174.492 304.577 175.341 304.92C176.2 305.254 176.929 305.743 177.528 306.379L176.611 307.295C175.554 306.228 174.221 305.691 172.611 305.691C171.528 305.691 170.549 305.936 169.674 306.42C168.799 306.91 168.111 307.582 167.611 308.441C167.111 309.29 166.861 310.249 166.861 311.316C166.861 312.374 167.111 313.332 167.611 314.191C168.111 315.04 168.799 315.707 169.674 316.191C170.549 316.681 171.528 316.92 172.611 316.92C174.236 316.92 175.57 316.379 176.611 315.295L177.528 316.212C176.929 316.853 176.2 317.348 175.341 317.691C174.476 318.04 173.549 318.212 172.549 318.212Z" fill="#594834"/>
<path d="M192.69 318.212C191.341 318.212 190.117 317.915 189.023 317.316C187.94 316.707 187.085 315.879 186.46 314.837C185.846 313.785 185.544 312.608 185.544 311.316C185.544 310.014 185.846 308.837 186.46 307.795C187.085 306.743 187.94 305.915 189.023 305.316C190.117 304.707 191.341 304.4 192.69 304.4C194.023 304.4 195.231 304.702 196.315 305.295C197.398 305.894 198.242 306.723 198.856 307.775C199.481 308.832 199.794 310.014 199.794 311.316C199.794 312.608 199.481 313.785 198.856 314.837C198.242 315.894 197.398 316.723 196.315 317.316C195.231 317.915 194.023 318.212 192.69 318.212ZM192.69 316.92C193.757 316.92 194.721 316.681 195.585 316.191C196.445 315.707 197.117 315.04 197.606 314.191C198.106 313.332 198.356 312.374 198.356 311.316C198.356 310.249 198.106 309.29 197.606 308.441C197.117 307.582 196.445 306.91 195.585 306.42C194.721 305.936 193.757 305.691 192.69 305.691C191.606 305.691 190.627 305.936 189.752 306.42C188.887 306.91 188.21 307.582 187.71 308.441C187.21 309.29 186.96 310.249 186.96 311.316C186.96 312.374 187.21 313.332 187.71 314.191C188.21 315.04 188.887 315.707 189.752 316.191C190.627 316.681 191.606 316.92 192.69 316.92ZM194.085 301.025H195.919L192.794 303.42H191.44L194.085 301.025Z" fill="#594834"/>
<path d="M209.174 304.525H210.612V316.837H218.195V318.087H209.174V304.525Z" fill="#594834"/>
<path d="M232.694 318.212C231.345 318.212 230.121 317.915 229.027 317.316C227.944 316.707 227.09 315.879 226.465 314.837C225.85 313.785 225.548 312.608 225.548 311.316C225.548 310.014 225.85 308.837 226.465 307.795C227.09 306.743 227.944 305.915 229.027 305.316C230.121 304.707 231.345 304.4 232.694 304.4C234.027 304.4 235.235 304.702 236.319 305.295C237.402 305.894 238.246 306.723 238.86 307.775C239.485 308.832 239.798 310.014 239.798 311.316C239.798 312.608 239.485 313.785 238.86 314.837C238.246 315.894 237.402 316.723 236.319 317.316C235.235 317.915 234.027 318.212 232.694 318.212ZM232.694 316.92C233.762 316.92 234.725 316.681 235.59 316.191C236.449 315.707 237.121 315.04 237.61 314.191C238.11 313.332 238.36 312.374 238.36 311.316C238.36 310.249 238.11 309.29 237.61 308.441C237.121 307.582 236.449 306.91 235.59 306.42C234.725 305.936 233.762 305.691 232.694 305.691C231.61 305.691 230.631 305.936 229.756 306.42C228.892 306.91 228.215 307.582 227.715 308.441C227.215 309.29 226.965 310.249 226.965 311.316C226.965 312.374 227.215 313.332 227.715 314.191C228.215 315.04 228.892 315.707 229.756 316.191C230.631 316.681 231.61 316.92 232.694 316.92Z" fill="#594834"/>
<path d="M258.741 311.316H260.116V316.483C259.475 317.04 258.72 317.473 257.845 317.775C256.981 318.066 256.079 318.212 255.137 318.212C253.772 318.212 252.553 317.915 251.47 317.316C250.387 316.723 249.533 315.894 248.908 314.837C248.283 313.785 247.97 312.608 247.97 311.316C247.97 310.014 248.283 308.832 248.908 307.775C249.533 306.723 250.387 305.894 251.47 305.295C252.553 304.702 253.772 304.4 255.137 304.4C256.178 304.4 257.126 304.566 257.991 304.9C258.85 305.233 259.579 305.723 260.178 306.358L259.283 307.275C258.21 306.223 256.85 305.691 255.199 305.691C254.1 305.691 253.106 305.936 252.22 306.42C251.345 306.91 250.647 307.582 250.137 308.441C249.637 309.29 249.387 310.249 249.387 311.316C249.387 312.374 249.637 313.332 250.137 314.191C250.647 315.04 251.345 315.707 252.22 316.191C253.095 316.681 254.079 316.92 255.178 316.92C256.579 316.92 257.767 316.577 258.741 315.879V311.316Z" fill="#594834"/>
<path d="M278.823 314.462H271.281L269.635 318.087H268.156L274.344 304.525H275.76L281.969 318.087H280.448L278.823 314.462ZM278.302 313.295L275.052 306.025L271.802 313.295H278.302Z" fill="#594834"/>
<path d="M203.937 129.95L203.708 129.369C203.653 129.227 203.594 129.09 203.53 128.957L203.312 129.293L203.374 128.652C202.029 126.176 199.233 125.006 196.29 123.775C193.407 122.568 190.426 121.322 188.827 118.724C186.527 114.981 188.272 110.026 191.083 107.264C191.608 106.748 192.323 106.147 193.202 106.078C193.771 106.035 194.391 106.221 195.045 106.634C195.589 106.978 196.073 107.437 196.468 107.974C197.284 108.243 198.075 108.681 198.77 109.276C200.609 110.847 201.594 113.163 202.177 114.768C203.446 118.274 204.074 122.031 204.026 125.768C204.163 126.079 204.266 126.403 204.335 126.737C206.628 122.583 207.416 118.098 206.497 114.217C205.314 109.213 200.965 105.319 196.382 105.16C192.866 105.037 189.141 106.99 186.42 110.38C183.869 113.557 182.356 117.628 181.139 120.9L180.485 122.66L180.68 120.793C181.132 116.467 181.627 112.59 183.147 108.941C184.897 104.74 187.894 101.592 191.371 100.302C192.459 99.8991 193.615 99.6623 194.731 99.4339C196.202 99.1333 197.724 98.8244 199.057 98.1258C201.609 96.7892 203.168 94.2805 204.514 91.614C204.261 91.6358 204.005 91.651 203.75 91.6594C203.288 91.6761 202.815 91.6745 202.36 91.6728C201.19 91.6694 199.984 91.6661 198.864 91.9666C198.728 92.598 198.585 93.2277 198.437 93.8557C198.209 94.8145 197.615 95.958 196.798 96.351C196.414 96.5357 196.006 96.5357 195.62 96.351L195.532 96.309L195.499 96.2183C195.24 95.5114 195.291 94.7373 195.642 93.98C196.115 92.9624 197.099 92.0791 198.209 91.6745C198.291 91.6442 198.374 91.6157 198.457 91.5888C199.304 87.6058 199.9 83.549 200.234 79.5005C200.264 79.121 200.293 78.7432 200.323 78.3637C200.469 76.4343 200.622 74.4361 201.077 72.5151C201.164 72.1423 201.265 71.7712 201.378 71.4035C199.42 71.4992 197.495 71.0257 195.855 70.5404C191.828 69.3516 187.978 67.6254 184.41 65.4122C181.77 63.7767 179.164 60.8919 180.502 58.1481C180.84 57.458 181.387 56.9207 181.918 56.4018C182.075 56.2473 182.238 56.0861 182.393 55.9266C183.735 54.5262 184.465 52.8906 184.448 51.3223C184.435 49.9403 183.773 48.6541 182.774 47.927C182.996 49.4551 182.757 51.0234 181.632 52.1518L181.599 52.1803C180.885 52.6757 179.941 52.669 179.075 52.1636C178.114 51.6027 177.552 50.6154 177.639 49.6448C177.716 48.8052 178.207 48.0194 178.988 47.4887C179.874 46.8859 180.971 46.6945 181.924 46.9783C181.985 46.9951 182.044 47.0152 182.104 47.037C181.929 46.404 181.684 45.7978 181.407 45.2605C181.048 44.5653 180.621 43.8785 180.208 43.2136C179.337 41.8115 178.433 40.3623 178.084 38.71C177.323 35.1065 179.387 31.7028 181.575 29.7181C184.065 27.4579 187.33 26.1213 190.211 24.9391C193.699 23.5102 197.092 22.3213 200.321 23.4464C201.648 23.9081 202.8 24.7393 203.915 25.5436C204.9 26.2556 205.92 26.9911 207.041 27.4512C208.665 28.1161 210.532 28.227 212.338 28.3361C214.851 28.4872 217.449 28.6417 219.37 30.3142C219.817 30.7021 220.129 31.0967 220.327 31.5198C220.571 32.037 220.639 32.5995 220.708 33.1419C220.73 33.3182 220.754 33.5012 220.782 33.6759C221.084 35.5532 222.124 37.2441 223.128 38.8796C224.157 40.5538 225.222 42.285 225.541 44.253C225.804 45.8818 225.48 47.6264 224.629 49.1662C223.778 50.7077 222.473 51.9083 220.957 52.5498C219.953 52.9729 218.875 53.1761 217.832 53.3709C216.848 53.5556 215.83 53.7453 214.902 54.1232C213.672 54.6202 212.573 55.4531 211.508 56.2591C210.27 57.196 208.989 58.1666 207.476 58.6418C205.552 59.2463 203.519 58.976 201.551 58.7123C199.801 58.4789 197.991 58.2388 196.291 58.6284C195.544 58.798 194.809 59.0952 194.097 59.3806C193.143 59.7652 192.157 60.1631 191.104 60.279C189.917 60.4116 188.586 59.96 187.791 59.1523C187.232 58.5864 186.984 57.9063 187.074 57.1876C187.227 55.9434 188.347 55.1323 189 54.7596C192.512 52.7563 196.857 53.836 200.689 54.7881C201.03 54.8737 201.369 54.9577 201.703 55.0383C204.907 55.8174 210.677 56.563 213.318 52.8084C214.92 50.5331 214.64 47.3645 214.289 45.1799C213.77 41.9357 212.873 38.7503 211.626 35.7144C210.961 34.0957 210.158 32.4417 208.791 31.2998C207.268 30.027 205.201 29.5468 203.215 29.1639C198.997 28.3529 194.206 27.8491 190.644 30.2705C187.063 32.7053 185.946 37.3432 186.094 40.8711C186.226 44.0414 187.267 46.7281 189.024 48.4392C191.126 50.4861 194.338 50.9747 196.498 49.576C197.552 48.8909 198.244 47.875 198.634 46.6895C196.763 46.9984 194.461 46.5753 193.212 44.8558C192.085 43.3026 192.176 41.2221 192.34 39.7914C192.565 37.8688 193.239 36.6933 194.345 36.2971C196.113 35.6657 197.761 37.4137 198.541 39.3078C199.319 41.1935 199.651 43.3244 199.453 45.1547C199.42 45.462 199.373 45.7592 199.311 46.0463C201.327 45.4469 203.072 44.0397 204.615 42.7955C206.049 41.6385 207.834 40.1995 208.534 38.2583C208.922 37.1803 208.845 35.8873 208.331 34.8832C208.071 34.3727 207.58 33.7162 206.719 33.4492C206.699 33.4425 206.679 33.4358 206.657 33.4307C205.179 33.0109 203.666 33.9966 202.936 35.1888C202.091 36.5641 201.982 38.2852 201.982 39.6302L201.507 39.6319C201.507 38.2231 201.623 36.4163 202.529 34.9386C203.356 33.5953 205.082 32.4887 206.788 32.9723C207.627 33.2091 208.309 33.7968 208.754 34.6649C209.327 35.7832 209.414 37.2223 208.983 38.4179C208.237 40.4849 206.393 41.971 204.912 43.1649C203.305 44.4612 201.485 45.9305 199.329 46.5367C199.279 46.5501 199.23 46.5635 199.178 46.5753C198.755 48.0529 197.932 49.2133 196.756 49.9756C194.416 51.4936 190.948 50.9797 188.691 48.7817C186.848 46.9867 185.758 44.1841 185.619 40.8913C185.466 37.234 186.634 32.4215 190.379 29.8759C194.083 27.3555 198.993 27.8659 203.307 28.6955C205.354 29.0901 207.49 29.5871 209.097 30.9321C210.544 32.1411 211.379 33.8572 212.067 35.5314C213.328 38.6026 214.235 41.8232 214.761 45.1026C215.123 47.3695 215.41 50.6641 213.708 53.0821C210.904 57.0684 204.912 56.3094 201.591 55.5018C201.255 55.4212 200.916 55.3355 200.575 55.2516C196.646 54.2743 192.582 53.2651 189.235 55.1743C188.66 55.5018 187.676 56.2087 187.546 57.2464C187.457 57.9651 187.815 58.4974 188.131 58.8181C188.827 59.525 190.003 59.923 191.052 59.8055C192.04 59.6963 192.953 59.3286 193.92 58.939C194.647 58.6452 195.401 58.3412 196.184 58.1632C197.969 57.7535 199.821 58.002 201.613 58.2405C203.618 58.5075 205.51 58.7593 207.334 58.1867C208.769 57.7367 209.96 56.8333 211.221 55.8779C212.309 55.0551 213.436 54.2021 214.722 53.6798C215.696 53.2852 216.737 53.0905 217.744 52.9024C218.762 52.711 219.817 52.5145 220.77 52.1098C223.689 50.8773 225.576 47.4585 225.069 44.3302C224.765 42.4546 223.727 40.7637 222.722 39.1298C221.694 37.454 220.628 35.7228 220.31 33.7531C220.28 33.5701 220.257 33.382 220.235 33.2023C220.168 32.6717 220.105 32.173 219.895 31.723C219.726 31.362 219.451 31.0177 219.056 30.6752C217.258 29.1085 214.853 28.9658 212.307 28.813C210.464 28.7022 208.556 28.588 206.86 27.8928C205.686 27.4109 204.644 26.6586 203.634 25.9315C202.548 25.1474 201.425 24.3363 200.162 23.8964C197.094 22.8251 193.789 23.9887 190.389 25.3808C187.405 26.6032 184.321 27.8676 181.892 30.0707C179.804 31.9665 177.829 35.2056 178.549 38.611C178.88 40.181 179.76 41.5948 180.61 42.9617C181.028 43.6334 181.461 44.3285 181.829 45.0405C182.175 45.7105 182.472 46.4846 182.655 47.2872C183.988 48.0328 184.907 49.6112 184.923 51.3189C184.938 53.0115 184.161 54.7646 182.734 56.2574C182.576 56.4236 182.41 56.5848 182.248 56.7427C181.725 57.2565 181.229 57.7418 180.929 58.358C179.728 60.8147 182.188 63.4761 184.658 65.0075C188.191 67.1989 192.001 68.9066 195.989 70.0837C197.64 70.5723 199.583 71.0492 201.53 70.9182C203.582 64.7976 208.89 59.4747 215.743 56.7897C217.127 56.2473 219.655 55.574 221.051 57.1524C222.031 58.2606 221.845 59.9297 221.257 61.0128C220.626 62.1748 219.543 63.011 218.468 63.7398C215.234 65.9378 211.649 67.6187 208.182 69.2441C206.284 70.1341 204.138 71.1382 201.885 71.3666C201.754 71.7813 201.638 72.2011 201.537 72.6243C201.09 74.51 200.941 76.488 200.795 78.4006C200.765 78.7801 200.736 79.1596 200.706 79.5391C200.377 83.5271 199.796 87.5219 198.971 91.4478C200.08 91.1892 201.235 91.1942 202.358 91.1976C202.812 91.1976 203.278 91.1993 203.732 91.1841C204.076 91.1724 204.42 91.1472 204.763 91.1119C204.983 90.667 205.196 90.2203 205.411 89.7736C205.631 89.3152 205.858 88.8417 206.084 88.385C208.185 84.135 210.872 80.2024 214.067 76.7013C214.893 75.7979 215.881 74.8055 217.167 74.4747C217.922 74.2799 218.801 74.4092 219.459 74.8072C219.988 75.1279 220.334 75.5846 220.461 76.127C220.582 76.6476 220.49 77.1799 220.394 77.6366C219.613 81.3408 217.483 84.8151 214.395 87.4178C211.666 89.7149 208.4 91.159 205.073 91.5569C203.663 94.393 202.039 97.1015 199.275 98.549C197.882 99.2778 196.327 99.5951 194.824 99.9024C193.724 100.127 192.587 100.359 191.534 100.75C188.181 101.993 185.283 105.046 183.583 109.124C182.311 112.182 181.765 115.423 181.355 118.968C182.477 116.043 183.894 112.762 186.045 110.082C188.861 106.574 192.732 104.555 196.395 104.683C198.795 104.767 201.195 105.81 203.149 107.617C205.025 109.351 206.378 111.655 206.957 114.107C207.945 118.279 207.025 123.115 204.43 127.526C204.457 128.151 204.367 128.781 204.15 129.363L203.937 129.95ZM203.831 128.497C203.848 128.527 203.863 128.557 203.88 128.589C203.893 128.514 203.906 128.438 203.918 128.363C203.893 128.403 203.868 128.44 203.843 128.48L203.831 128.497ZM193.976 106.649C193.717 106.569 193.47 106.537 193.237 106.555C192.513 106.611 191.884 107.145 191.417 107.605C188.737 110.238 187.061 114.943 189.234 118.474C190.752 120.941 193.66 122.158 196.474 123.335C199.156 124.457 201.915 125.612 203.45 127.864C203.505 127.201 203.537 126.534 203.549 125.869C203.48 125.723 203.403 125.582 203.317 125.446L203.552 125.297C203.545 121.77 202.927 118.237 201.73 114.933C201.166 113.378 200.216 111.136 198.463 109.64C198.018 109.259 197.484 108.918 196.898 108.656C197.055 108.95 197.186 109.259 197.289 109.576C197.7 110.857 197.604 112.14 197.02 113.191C196.39 114.326 195.101 115.074 193.66 115.139C192.374 115.196 191.272 114.696 190.641 113.764C190.087 112.946 189.947 111.908 190.25 110.842C190.592 109.626 191.479 108.565 192.56 108.077C193.499 107.652 194.592 107.561 195.68 107.769C195.417 107.494 195.119 107.247 194.792 107.041C194.508 106.859 194.236 106.73 193.976 106.649ZM196.179 108.384C195.077 108.043 193.865 108.008 192.757 108.51C191.798 108.943 191.012 109.885 190.706 110.97C190.444 111.898 190.56 112.795 191.034 113.494C191.571 114.286 192.52 114.711 193.638 114.661C194.898 114.604 196.061 113.937 196.604 112.96C197.361 111.596 197.128 109.769 196.179 108.384ZM195.914 95.958C196.144 96.042 196.365 96.0286 196.594 95.9194C197.264 95.597 197.779 94.566 197.974 93.7449C198.1 93.2092 198.222 92.6719 198.342 92.1329C197.358 92.5006 196.491 93.2831 196.075 94.1798C195.793 94.7843 195.737 95.3972 195.914 95.958ZM218.688 74.9785C218.236 74.8391 217.736 74.8189 217.286 74.9348C216.127 75.232 215.201 76.1673 214.42 77.022C211.254 80.4895 208.593 84.3835 206.512 88.5949C206.287 89.0482 206.061 89.5218 205.841 89.9785C205.671 90.3311 205.502 90.6854 205.329 91.0397C212.243 90.0574 218.485 84.3986 219.931 77.5358C220.016 77.1295 220.099 76.6593 220 76.2345C219.875 75.7089 219.504 75.3899 219.214 75.2135C219.053 75.1162 218.875 75.0372 218.688 74.9785ZM219.627 56.788C218.411 56.4102 216.871 56.8585 215.918 57.2313C209.268 59.8374 204.105 64.9622 202.051 70.8679C204.141 70.6109 206.091 69.6975 207.98 68.8109C211.431 67.1938 214.999 65.5197 218.203 63.3452C219.227 62.6483 220.258 61.8557 220.841 60.7827C221.351 59.8441 221.524 58.4034 220.696 57.4664C220.398 57.1289 220.03 56.9139 219.627 56.788ZM181.827 47.4451C181.814 47.4417 181.802 47.4367 181.788 47.4333C180.982 47.1949 180.012 47.3662 179.254 47.88C178.593 48.33 178.176 48.9882 178.114 49.6851C178.034 50.5801 178.658 51.366 179.315 51.7488C180.01 52.1552 180.756 52.1736 181.311 51.7992C182.395 50.6993 182.542 49.1159 182.24 47.6063C182.106 47.5442 181.968 47.4887 181.827 47.4451ZM195.636 36.7253C195.27 36.6111 194.889 36.606 194.505 36.7437C193.583 37.0728 193.014 38.1156 192.814 39.8435C192.658 41.1935 192.567 43.1531 193.596 44.5703C194.775 46.1941 197.022 46.5333 198.782 46.1756C199.299 44.0968 198.975 41.6032 198.102 39.4858C197.586 38.2365 196.674 37.0477 195.636 36.7253Z" fill="#594834"/>
<defs>
<linearGradient id="paint0_linear_32_280" x1="53" y1="186.516" x2="346.255" y2="186.516" gradientUnits="userSpaceOnUse">
<stop stop-color="#F1F2D8"/>
<stop offset="1" stop-color="#F2D8C2"/>
</linearGradient>
</defs>
</svg>
