<svg width="500" height="500" viewBox="0 0 500 500" fill="none" xmlns="http://www.w3.org/2000/svg">
<path d="M247.852 468.729L248.685 125.23" stroke="#26150F"/>
<path d="M64.4446 198.5C82.0487 198.5 83.2814 213.031 83.2814 253.361V344.238C83.2814 384.559 82.0487 399.09 64.4446 399.09V401.139H210.998V367.363H208.958C208.958 396.842 146.528 399.09 127.083 399.09H100.886V289.793C104.158 285.496 109.271 282.423 115.208 282.623C129.74 283.04 140.182 300.635 165.156 300.635C181.32 300.635 191.354 290.201 191.354 278.127H189.306C189.306 285.288 181.936 289.793 174.158 289.793C156.146 289.793 144.887 277.102 124.627 277.102C115.208 277.102 107.023 280.583 100.886 286.512V198.5H134.861C181.936 198.5 208.958 209.559 208.958 223.265V224.09H210.998V196.451H64.4446V198.5Z" fill="#26150F"/>
<path d="M283.235 399.09V401.139H338.504V399.09C320.9 399.09 319.676 384.559 319.676 344.238V300.635C319.676 291.017 323.357 282.623 333.999 282.623C348.53 282.623 358.973 300.635 383.947 300.635C400.11 300.635 410.145 290.201 410.145 278.127H408.096C408.096 285.288 400.727 289.793 392.949 289.793C374.937 289.793 363.678 277.102 343.418 277.102C331.135 277.102 322.124 283.647 319.676 289.177V198.5H353.444C400.518 198.5 427.541 209.559 427.541 223.265V224.09H429.59V196.451H283.235V198.5C300.84 198.5 302.072 213.031 302.072 253.361V344.238C302.072 384.559 300.84 399.09 283.235 399.09Z" fill="#26150F"/>
<path d="M5.13477 275.491H493.893V332.418H5.13477V275.491Z" fill="white"/>
<path d="M29.0904 312.704V314.788H13.1182V292.184H28.6043V294.267H15.514V302.288H27.1807V304.336H15.514V312.704H29.0904Z" fill="#26150F"/>
<path d="M51.2531 314.996C49.5604 314.996 47.9371 314.736 46.392 314.198C44.8642 313.642 43.6837 312.93 42.8503 312.045L43.7878 310.205C44.5951 311.021 45.6715 311.68 47.017 312.184C48.3799 312.696 49.7948 312.948 51.2531 312.948C53.267 312.948 54.7687 312.583 55.767 311.837C56.7826 311.099 57.2948 310.135 57.2948 308.955C57.2948 308.052 57.017 307.34 56.4615 306.802C55.9233 306.246 55.2549 305.83 54.4476 305.552C53.6576 305.257 52.5552 304.927 51.149 304.58C49.4302 304.163 48.0674 303.764 47.0517 303.364C46.0535 302.948 45.1941 302.34 44.4823 301.524C43.7618 300.691 43.4059 299.58 43.4059 298.191C43.4059 297.062 43.701 296.029 44.3087 295.101C44.9076 294.154 45.8191 293.399 47.0517 292.844C48.3017 292.271 49.8469 291.976 51.7045 291.976C52.9979 291.976 54.2566 292.167 55.4892 292.531C56.7392 292.878 57.8156 293.364 58.7184 293.989L57.9198 295.899C56.9649 295.274 55.9493 294.814 54.8642 294.51C53.7965 294.189 52.7462 294.024 51.7045 294.024C49.734 294.024 48.241 294.406 47.2253 295.17C46.2271 295.934 45.7323 296.924 45.7323 298.121C45.7323 299.024 46.0101 299.753 46.5656 300.309C47.1212 300.864 47.7983 301.299 48.6142 301.594C49.4476 301.871 50.5674 302.184 51.9823 302.531C53.649 302.93 54.9858 303.33 56.0101 303.746C57.0257 304.146 57.8851 304.745 58.5795 305.552C59.2913 306.342 59.6559 307.427 59.6559 308.816C59.6559 309.953 59.3434 310.995 58.7184 311.941C58.1108 312.87 57.1733 313.608 55.9059 314.163C54.6299 314.719 53.076 314.996 51.2531 314.996Z" fill="#26150F"/>
<path d="M79.5207 294.267H71.604V292.184H89.8679V294.267H81.9165V314.788H79.5207V294.267Z" fill="#26150F"/>
<path d="M119.938 312.704V314.788H103.966V292.184H119.452V294.267H106.361V302.288H118.028V304.336H106.361V312.704H119.938Z" fill="#26150F"/>
<path d="M151.302 314.788L146.128 307.531C145.547 307.6 144.948 307.635 144.323 307.635H138.246V314.788H135.85V292.184H144.323C147.187 292.184 149.444 292.878 151.093 294.267C152.734 295.638 153.559 297.522 153.559 299.927C153.559 301.689 153.107 303.182 152.205 304.406C151.302 305.638 150.026 306.515 148.385 307.045L153.906 314.788H151.302ZM144.253 305.586C146.493 305.586 148.211 305.092 149.392 304.093C150.573 303.104 151.163 301.715 151.163 299.927C151.163 298.104 150.573 296.697 149.392 295.725C148.211 294.753 146.493 294.267 144.253 294.267H138.246V305.586H144.253Z" fill="#26150F"/>
<path d="M484.519 324.462L12.8572 322.521" stroke="#26150F"/>
<path d="M190.627 294.267V303.121H202.293V305.204H190.627V314.788H188.231V292.184H203.717V294.267H190.627Z" fill="#26150F"/>
<path d="M218.954 292.184H221.35V314.788H218.954V292.184Z" fill="#26150F"/>
<path d="M254.935 303.503H257.227V312.114C256.159 313.043 254.9 313.764 253.442 314.267C252.001 314.753 250.499 314.996 248.928 314.996C246.654 314.996 244.623 314.502 242.817 313.503C241.011 312.514 239.588 311.134 238.546 309.371C237.504 307.618 236.984 305.656 236.984 303.503C236.984 301.333 237.504 299.363 238.546 297.601C239.588 295.847 241.011 294.467 242.817 293.469C244.623 292.479 246.654 291.976 248.928 291.976C250.664 291.976 252.244 292.253 253.685 292.809C255.117 293.364 256.333 294.18 257.331 295.239L255.838 296.767C254.05 295.014 251.784 294.128 249.032 294.128C247.201 294.128 245.543 294.536 244.067 295.344C242.609 296.16 241.445 297.279 240.595 298.712C239.761 300.127 239.345 301.724 239.345 303.503C239.345 305.266 239.761 306.863 240.595 308.295C241.445 309.71 242.609 310.821 244.067 311.628C245.525 312.444 247.166 312.844 248.998 312.844C251.333 312.844 253.312 312.271 254.935 311.108V303.503Z" fill="#26150F"/>
<path d="M283.335 314.996C280.419 314.996 278.136 314.163 276.495 312.496C274.846 310.812 274.03 308.355 274.03 305.135V292.184H276.426V305.031C276.426 307.67 277.016 309.64 278.196 310.934C279.394 312.21 281.113 312.843 283.335 312.843C285.601 312.843 287.328 312.21 288.509 310.934C289.69 309.64 290.28 307.67 290.28 305.031V292.184H292.606V305.135C292.606 308.355 291.79 310.812 290.176 312.496C288.552 314.163 286.269 314.996 283.335 314.996Z" fill="#26150F"/>
<path d="M326.064 312.704V314.788H310.092V292.184H325.578V294.267H312.488V302.288H324.154V304.336H312.488V312.704H326.064Z" fill="#26150F"/>
<path d="M341.977 292.184H344.373V314.788H341.977V292.184Z" fill="#26150F"/>
<path d="M377.472 314.788L372.298 307.531C371.716 307.6 371.117 307.635 370.492 307.635H364.416V314.788H362.02V292.184H370.492C373.357 292.184 375.614 292.878 377.263 294.267C378.904 295.638 379.729 297.522 379.729 299.927C379.729 301.689 379.277 303.182 378.374 304.406C377.472 305.638 376.196 306.515 374.555 307.045L380.076 314.788H377.472ZM370.423 305.586C372.663 305.586 374.381 305.092 375.562 304.093C376.742 303.104 377.333 301.715 377.333 299.927C377.333 298.104 376.742 296.697 375.562 295.725C374.381 294.753 372.663 294.267 370.423 294.267H364.416V305.586H370.423Z" fill="#26150F"/>
<path d="M411.62 312.704V314.788H395.647V292.184H411.134V294.267H398.043V302.288H409.71V304.336H398.043V312.704H411.62Z" fill="#26150F"/>
<path d="M427.532 292.184H436.734C439.112 292.184 441.222 292.67 443.053 293.642C444.876 294.597 446.3 295.925 447.324 297.635C448.34 299.354 448.852 301.307 448.852 303.503C448.852 305.682 448.34 307.626 447.324 309.336C446.3 311.055 444.876 312.392 443.053 313.364C441.222 314.319 439.112 314.788 436.734 314.788H427.532V292.184ZM436.595 312.704C438.583 312.704 440.319 312.322 441.803 311.559C443.279 310.777 444.425 309.684 445.241 308.295C446.074 306.906 446.491 305.309 446.491 303.503C446.491 301.68 446.074 300.066 445.241 298.677C444.425 297.288 443.279 296.211 441.803 295.447C440.319 294.666 438.583 294.267 436.595 294.267H429.928V312.704H436.595Z" fill="#26150F"/>
<path d="M474.379 314.996C472.131 314.996 470.091 314.502 468.268 313.503C466.462 312.488 465.039 311.108 463.997 309.371C462.973 307.618 462.469 305.656 462.469 303.503C462.469 301.333 462.973 299.371 463.997 297.635C465.039 295.882 466.462 294.502 468.268 293.503C470.091 292.488 472.131 291.976 474.379 291.976C476.601 291.976 478.615 292.479 480.421 293.469C482.226 294.467 483.632 295.847 484.657 297.601C485.698 299.363 486.219 301.333 486.219 303.503C486.219 305.656 485.698 307.618 484.657 309.371C483.632 311.134 482.226 312.514 480.421 313.503C478.615 314.502 476.601 314.996 474.379 314.996ZM474.379 312.844C476.158 312.844 477.764 312.444 479.205 311.628C480.638 310.821 481.757 309.71 482.573 308.295C483.407 306.863 483.823 305.266 483.823 303.503C483.823 301.724 483.407 300.127 482.573 298.712C481.757 297.279 480.638 296.16 479.205 295.344C477.764 294.536 476.158 294.128 474.379 294.128C472.573 294.128 470.941 294.536 469.483 295.344C468.042 296.16 466.914 297.279 466.08 298.712C465.247 300.127 464.83 301.724 464.83 303.503C464.83 305.266 465.247 306.863 466.08 308.295C466.914 309.71 468.042 310.821 469.483 311.628C470.941 312.444 472.573 312.844 474.379 312.844Z" fill="#26150F"/>
<path d="M256.701 215.392L256.321 214.424C256.228 214.189 256.13 213.959 256.024 213.738L255.66 214.298L255.764 213.229C253.522 209.104 248.862 207.153 243.956 205.101C239.151 203.089 234.183 201.013 231.519 196.683C227.685 190.445 230.593 182.186 235.278 177.583C236.154 176.723 237.346 175.722 238.81 175.607C239.758 175.534 240.791 175.845 241.882 176.533C242.789 177.107 243.595 177.871 244.253 178.766C245.613 179.214 246.931 179.945 248.09 180.935C251.154 183.555 252.797 187.414 253.768 190.09C255.884 195.933 256.931 202.194 256.849 208.423C257.079 208.941 257.25 209.481 257.364 210.038C261.187 203.114 262.5 195.639 260.969 189.172C258.996 180.832 251.748 174.342 244.11 174.076C238.25 173.872 232.043 177.126 227.506 182.777C223.255 188.072 220.733 194.856 218.704 200.31L217.616 203.243L217.94 200.131C218.693 192.922 219.519 186.46 222.051 180.378C224.968 173.376 229.963 168.129 235.759 165.98C237.573 165.308 239.498 164.913 241.359 164.533C243.811 164.032 246.346 163.517 248.568 162.353C252.822 160.125 255.419 155.944 257.664 151.5C257.241 151.536 256.816 151.561 256.391 151.575C255.621 151.603 254.832 151.6 254.073 151.597C252.123 151.592 250.113 151.586 248.247 152.087C248.02 153.14 247.782 154.189 247.536 155.236C247.155 156.834 246.164 158.74 244.804 159.394C244.163 159.702 243.483 159.702 242.84 159.394L242.694 159.324L242.638 159.173C242.207 157.995 242.291 156.705 242.876 155.443C243.665 153.747 245.305 152.275 247.155 151.6C247.292 151.55 247.429 151.502 247.569 151.458C248.98 144.819 249.973 138.058 250.53 131.31C250.581 130.678 250.628 130.048 250.679 129.416C250.922 126.2 251.177 122.87 251.935 119.668C252.081 119.047 252.249 118.428 252.436 117.815C249.173 117.975 245.966 117.186 243.231 116.377C236.52 114.395 230.103 111.518 224.156 107.83C219.757 105.104 215.413 100.296 217.644 95.723C218.206 94.5728 219.118 93.6772 220.003 92.8125C220.266 92.555 220.537 92.2863 220.795 92.0205C223.031 89.6864 224.248 86.9606 224.22 84.3466C224.198 82.0434 223.095 79.8996 221.43 78.6878C221.8 81.2346 221.402 83.8485 219.527 85.7292L219.471 85.7767C218.282 86.6023 216.709 86.5911 215.265 85.7488C213.664 84.814 212.726 83.1684 212.872 81.5508C213.001 80.1515 213.818 78.8418 215.119 77.9574C216.597 76.9527 218.424 76.6336 220.014 77.1066C220.115 77.1346 220.213 77.1682 220.314 77.2046C220.022 76.1495 219.614 75.1392 219.152 74.2436C218.553 73.085 217.842 71.9404 217.154 70.8321C215.701 68.4953 214.196 66.0801 213.614 63.3262C212.346 57.3204 215.785 51.6476 219.432 48.3396C223.582 44.5727 229.023 42.345 233.825 40.3747C239.638 37.9931 245.294 36.0117 250.676 37.8868C252.887 38.6564 254.806 40.0417 256.665 41.3822C258.308 42.5688 260.006 43.7946 261.876 44.5615C264.582 45.6697 267.694 45.8544 270.703 46.0363C274.892 46.2882 279.222 46.5457 282.423 49.3331C283.168 49.9796 283.688 50.6373 284.018 51.3425C284.424 52.2045 284.539 53.142 284.654 54.046C284.69 54.3398 284.729 54.6449 284.777 54.9359C285.281 58.0648 287.013 60.883 288.687 63.6089C290.402 66.3991 292.176 69.2845 292.708 72.5645C293.148 75.2791 292.607 78.1869 291.189 80.7532C289.77 83.3223 287.595 85.3234 285.068 86.3924C283.394 87.0977 281.598 87.4363 279.86 87.761C278.22 88.0688 276.524 88.3851 274.976 89.0147C272.928 89.8431 271.094 91.2312 269.32 92.5746C267.258 94.1362 265.122 95.7538 262.601 96.5458C259.393 97.5533 256.004 97.1028 252.724 96.6634C249.808 96.2744 246.791 95.8742 243.959 96.5234C242.714 96.8061 241.488 97.3015 240.301 97.7772C238.712 98.4181 237.069 99.0814 235.314 99.2745C233.335 99.4956 231.116 98.7427 229.792 97.3966C228.86 96.4535 228.446 95.32 228.597 94.1222C228.852 92.0484 230.719 90.6967 231.807 90.0754C237.659 86.7367 244.902 88.5362 251.289 90.123C251.857 90.2657 252.422 90.4057 252.979 90.54C258.319 91.8385 267.935 93.0811 272.337 86.8234C275.007 83.0313 274.54 77.7503 273.955 74.1093C273.09 68.7024 271.595 63.3934 269.516 58.3335C268.408 55.6356 267.07 52.879 264.792 50.9759C262.254 48.8545 258.809 48.0541 255.498 47.4161C248.468 46.0643 240.483 45.2247 234.547 49.2603C228.578 53.3183 226.717 61.0481 226.963 66.928C227.184 72.2118 228.919 76.6896 231.847 79.5414C235.35 82.9529 240.704 83.7673 244.303 81.4361C246.061 80.2942 247.214 78.6011 247.863 76.6253C244.745 77.1402 240.909 76.4349 238.826 73.5692C236.948 70.9804 237.1 67.5129 237.374 65.1285C237.749 61.9241 238.871 59.9651 240.715 59.3046C243.662 58.2523 246.408 61.1657 247.709 64.3225C249.005 67.4654 249.559 71.0168 249.229 74.0673C249.173 74.5795 249.095 75.0748 248.991 75.5534C252.352 74.5543 255.26 72.209 257.832 70.1353C260.222 68.207 263.197 65.8086 264.364 62.5734C265.01 60.7767 264.882 58.6217 264.025 56.9482C263.591 56.0974 262.774 55.0031 261.338 54.5581C261.305 54.5469 261.271 54.5357 261.235 54.5274C258.772 53.8277 256.251 55.4705 255.033 57.4575C253.625 59.7496 253.444 62.6182 253.444 64.8599L252.652 64.8627C252.652 62.5146 252.845 59.5033 254.356 57.0405C255.733 54.8016 258.61 52.9573 261.453 53.7633C262.853 54.1579 263.989 55.1374 264.73 56.5843C265.685 58.4482 265.83 60.8466 265.111 62.8393C263.868 66.2844 260.796 68.7611 258.327 70.7509C255.649 72.9115 252.615 75.3603 249.022 76.3706C248.938 76.393 248.857 76.4154 248.77 76.4349C248.065 78.8977 246.693 80.8316 244.734 82.1022C240.833 84.6321 235.054 83.7757 231.292 80.1123C228.22 77.1206 226.403 72.4497 226.171 66.9616C225.916 60.8662 227.864 52.8454 234.105 48.6027C240.279 44.4019 248.462 45.2527 255.652 46.6352C259.063 47.2929 262.623 48.1213 265.301 50.363C267.714 52.378 269.105 55.2382 270.252 58.0284C272.354 63.1471 273.865 68.5149 274.741 73.9806C275.346 77.7587 275.824 83.2496 272.986 87.2796C268.313 93.9235 258.327 92.6585 252.791 91.3124C252.232 91.1781 251.666 91.0353 251.098 90.8954C244.55 89.2666 237.777 87.5846 232.199 90.7667C231.239 91.3124 229.599 92.4906 229.384 94.2202C229.236 95.418 229.832 96.3051 230.358 96.8397C231.519 98.0179 233.478 98.6812 235.227 98.4853C236.873 98.3034 238.395 97.6905 240.007 97.0412C241.219 96.5514 242.476 96.0449 243.78 95.7482C246.755 95.0654 249.842 95.4796 252.828 95.877C256.169 96.3219 259.323 96.7417 262.363 95.7874C264.756 95.0374 266.74 93.5317 268.842 91.9393C270.655 90.568 272.533 89.1463 274.677 88.2759C276.3 87.6182 278.035 87.2936 279.714 86.9801C281.41 86.6611 283.168 86.3337 284.757 85.6592C289.621 83.605 292.767 77.907 291.922 72.6932C291.415 69.5671 289.686 66.7489 288.009 64.0259C286.297 61.2328 284.519 58.3475 283.99 55.0647C283.94 54.7596 283.901 54.4462 283.865 54.1467C283.753 53.2624 283.649 52.4312 283.299 51.6812C283.017 51.0795 282.558 50.5057 281.9 49.9348C278.903 47.3237 274.895 47.0858 270.652 46.8311C267.579 46.6464 264.4 46.4561 261.574 45.2975C259.617 44.4943 257.879 43.2405 256.197 42.0287C254.387 40.7218 252.514 39.37 250.41 38.6368C245.297 36.8513 239.789 38.7907 234.122 41.1108C229.149 43.1482 224.008 45.2555 219.961 48.9273C216.479 52.087 213.188 57.4855 214.389 63.1611C214.94 65.7778 216.407 68.1342 217.823 70.4123C218.52 71.5318 219.242 72.6904 219.855 73.877C220.431 74.9937 220.926 76.2838 221.231 77.6216C223.454 78.8641 224.984 81.4948 225.012 84.341C225.038 87.1621 223.742 90.0838 221.363 92.5718C221.1 92.8488 220.823 93.1175 220.554 93.3806C219.681 94.237 218.855 95.0458 218.354 96.0729C216.353 100.167 220.453 104.603 224.57 107.155C230.458 110.808 236.809 113.654 243.455 115.616C246.206 116.43 249.444 117.225 252.691 117.007C256.111 106.806 264.957 97.9339 276.378 93.4589C278.684 92.555 282.899 91.4327 285.225 94.0635C286.859 95.9105 286.548 98.6924 285.569 100.497C284.517 102.434 282.712 103.828 280.92 105.042C275.53 108.706 269.555 111.507 263.776 114.216C260.614 115.7 257.037 117.373 253.281 117.754C253.063 118.445 252.87 119.145 252.702 119.85C251.957 122.993 251.708 126.29 251.465 129.477C251.415 130.11 251.367 130.742 251.317 131.375C250.768 138.021 249.8 144.679 248.426 151.222C250.273 150.791 252.198 150.8 254.07 150.805C254.826 150.805 255.604 150.808 256.36 150.783C256.933 150.763 257.507 150.722 258.078 150.663C258.445 149.921 258.8 149.177 259.158 148.432C259.525 147.668 259.903 146.879 260.281 146.118C263.782 139.034 268.259 132.48 273.585 126.645C274.962 125.139 276.608 123.485 278.751 122.934C280.011 122.609 281.475 122.825 282.572 123.488C283.453 124.023 284.03 124.784 284.242 125.688C284.444 126.555 284.29 127.443 284.13 128.204C282.829 134.378 279.278 140.168 274.131 144.506C269.583 148.334 264.14 150.741 258.596 151.404C256.245 156.131 253.539 160.645 248.932 163.058C246.609 164.272 244.018 164.801 241.513 165.314C239.68 165.689 237.785 166.075 236.031 166.727C230.442 168.798 225.611 173.886 222.779 180.684C220.658 185.78 219.748 191.181 219.065 197.089C220.935 192.214 223.297 186.745 226.882 182.279C231.575 176.432 238.026 173.068 244.133 173.281C248.132 173.421 252.131 175.159 255.389 178.17C258.515 181.061 260.77 184.901 261.736 188.987C263.381 195.942 261.848 204.002 257.524 211.354C257.569 212.395 257.418 213.444 257.057 214.415L256.701 215.392ZM256.525 212.971C256.553 213.022 256.578 213.072 256.606 213.125C256.628 212.999 256.651 212.873 256.67 212.747C256.628 212.814 256.586 212.876 256.544 212.943L256.525 212.971ZM240.1 176.558C239.669 176.424 239.257 176.371 238.868 176.402C237.662 176.494 236.613 177.384 235.835 178.151C231.368 182.539 228.575 190.381 232.196 196.266C234.726 200.377 239.574 202.406 244.264 204.368C248.733 206.238 253.332 208.163 255.89 211.916C255.982 210.811 256.035 209.7 256.055 208.591C255.94 208.348 255.811 208.113 255.668 207.886L256.06 207.637C256.049 201.76 255.019 195.872 253.024 190.364C252.083 187.772 250.499 184.036 247.578 181.543C246.836 180.907 245.946 180.339 244.969 179.903C245.232 180.392 245.451 180.907 245.621 181.436C246.307 183.572 246.148 185.71 245.174 187.462C244.124 189.354 241.975 190.599 239.574 190.708C237.43 190.803 235.594 189.969 234.542 188.416C233.618 187.053 233.386 185.324 233.89 183.547C234.461 181.52 235.938 179.752 237.741 178.937C239.305 178.229 241.127 178.078 242.94 178.425C242.501 177.966 242.006 177.555 241.46 177.21C240.987 176.908 240.534 176.693 240.1 176.558ZM243.772 179.449C241.936 178.881 239.915 178.822 238.068 179.659C236.47 180.381 235.16 181.951 234.651 183.759C234.214 185.307 234.407 186.801 235.197 187.966C236.092 189.286 237.673 189.995 239.537 189.911C241.636 189.815 243.576 188.704 244.48 187.076C245.742 184.803 245.353 181.758 243.772 179.449ZM243.329 158.74C243.713 158.879 244.082 158.857 244.463 158.675C245.579 158.138 246.439 156.419 246.763 155.051C246.973 154.158 247.177 153.263 247.376 152.364C245.736 152.977 244.292 154.281 243.598 155.776C243.128 156.783 243.035 157.805 243.329 158.74ZM281.287 123.774C280.534 123.541 279.7 123.508 278.95 123.701C277.019 124.196 275.474 125.755 274.173 127.18C268.898 132.959 264.462 139.449 260.994 146.468C260.619 147.223 260.241 148.012 259.875 148.774C259.592 149.361 259.309 149.952 259.021 150.542C270.546 148.905 280.948 139.474 283.358 128.036C283.501 127.359 283.638 126.575 283.473 125.867C283.266 124.991 282.647 124.459 282.163 124.165C281.894 124.003 281.598 123.872 281.287 123.774ZM282.851 93.4562C280.825 92.8265 278.259 93.5737 276.669 94.195C265.587 98.5384 256.981 107.08 253.558 116.923C257.043 116.494 260.292 114.972 263.44 113.494C269.191 110.799 275.138 108.009 280.478 104.385C282.185 103.223 283.904 101.902 284.875 100.114C285.726 98.5496 286.014 96.1484 284.634 94.5868C284.136 94.0243 283.523 93.666 282.851 93.4562ZM219.852 77.8846C219.829 77.879 219.81 77.8706 219.787 77.865C218.444 77.4676 216.826 77.7531 215.564 78.6095C214.462 79.3595 213.768 80.4566 213.664 81.618C213.53 83.1097 214.571 84.4194 215.665 85.0575C216.824 85.7348 218.066 85.7655 218.993 85.1415C220.798 83.3084 221.044 80.6693 220.54 78.1533C220.316 78.0497 220.087 77.9574 219.852 77.8846ZM242.868 60.0182C242.257 59.8279 241.622 59.8195 240.981 60.049C239.445 60.5976 238.496 62.3355 238.163 65.2153C237.903 67.4654 237.752 70.7314 239.467 73.0934C241.432 75.7997 245.176 76.365 248.109 75.7689C248.971 72.3042 248.431 68.1482 246.976 64.6192C246.117 62.537 244.597 60.5556 242.868 60.0182Z" fill="#26150F"/>
</svg>
