<svg xmlns="http://www.w3.org/2000/svg" xmlns:xlink="http://www.w3.org/1999/xlink" fill="none" version="1.1" width="24" height="24" viewBox="0 0 24 24"><defs><clipPath id="master_svg0_7_17"><rect x="0" y="0" width="24" height="24" rx="0"/></clipPath></defs><g clip-path="url(#master_svg0_7_17)"><g><path d="M4,7L4,17L18,17L18,7L4,7ZM3,5L19,5C19.5523,5,20,5.447715,20,6L20,18C20,18.552300000000002,19.5523,19,19,19L3,19C2.447715,19,2,18.552300000000002,2,18L2,6C2,5.447715,2.447715,5,3,5ZM5,8L9,8L9,16L5,16L5,8ZM21,9L23,9L23,15L21,15L21,9Z" fill="#614732" fill-opacity="1"/></g></g></svg>