<svg xmlns="http://www.w3.org/2000/svg" xmlns:xlink="http://www.w3.org/1999/xlink" fill="none" version="1.1" width="24" height="24" viewBox="0 0 24 24"><defs><clipPath id="master_svg0_7_09"><rect x="0" y="0" width="24" height="24" rx="0"/></clipPath></defs><g clip-path="url(#master_svg0_7_09)"><g><path d="M12.00099463558197,4.529000980834961C14.34999463558197,2.419999980834961,17.97999463558197,2.489999980834961,20.24299463558197,4.757000980834961C22.50499463558197,7.025000980834961,22.58299463558197,10.637000980834962,20.47899463558197,12.99300098083496L11.99900463558197,21.48502098083496L3.52100463558197,12.99300098083496C1.4170006355819702,10.637000980834962,1.4960006355819702,7.019000980834961,3.7570046355819704,4.757000980834961C6.02200463558197,2.493000980834961,9.64500463558197,2.417000980834961,12.00099463558197,4.529000980834961ZM18.826994635581972,6.170000980834961C17.32699463558197,4.668000980834961,14.90699463558197,4.607000980834961,13.33699463558197,6.017000980834961L12.00199463558197,7.215000980834961L10.66600463558197,6.018000980834961C9.091004635581971,4.606000980834961,6.67600463558197,4.668000980834961,5.17200463558197,6.1720009808349605C3.68200463558197,7.662000980834961,3.60700463558197,10.04700098083496,4.98000463558197,11.623000980834961L11.99999463558197,18.65402098083496L19.01999463558197,11.62400098083496C20.39399463558197,10.04700098083496,20.31899463558197,7.665000980834961,18.826994635581972,6.170000980834961Z" fill="#614732" fill-opacity="1"/></g></g></svg>