<svg xmlns="http://www.w3.org/2000/svg" xmlns:xlink="http://www.w3.org/1999/xlink" fill="none" version="1.1" width="24" height="24" viewBox="0 0 24 24"><defs><clipPath id="master_svg0_13_4"><rect x="0" y="0" width="24" height="24" rx="0"/></clipPath></defs><g clip-path="url(#master_svg0_13_4)"><g><path d="M4.222004040145874,3.8080001L10.939004040145875,10.524995L8.111004040145874,13.354005L4.221004040145874,9.463995C2.6594720401458742,7.901995,2.6594720401458742,5.369995,4.221004040145874,3.8079996L4.222004040145874,3.8080001ZM14.267954040145874,12.145995L13.413954040145875,12.999995L20.484954040145873,20.070975L19.070954040145875,21.484975L12.000004040145875,14.414975L4.929004040145874,21.484975L3.515000040145874,20.070975L12.854004040145874,10.732005000000001C12.266004040145875,9.275005,12.874004040145874,7.177004999999999,14.473954040145873,5.575005C16.426954040145873,3.623001,19.117954040145875,3.148001,20.484954040145873,4.515001C21.851954040145873,5.8820049999999995,21.376954040145876,8.573005,19.424954040145874,10.525005C17.822954040145873,12.127005,15.724954040145875,12.735005,14.267954040145874,12.145995Z" fill="#614732" fill-opacity="1"/></g></g></svg>