<svg xmlns="http://www.w3.org/2000/svg" xmlns:xlink="http://www.w3.org/1999/xlink" fill="none" version="1.1" width="20" height="20.000009536743164" viewBox="0 0 20 20.000009536743164"><g><path d="M10,0C15.523,0,20,4.477,20,10C20,10.727,19.923,11.435,19.775,12.118L17.993,10.335C18.2002,5.37894,13.8936,1.43088,8.97418,2.06692C4.05474,2.70296,0.893929,7.61649,2.35477,12.3569C3.81562,17.0973,9.19388,19.3794,13.618,17.136C13.9997,17.7409,14.5367,18.2323,15.173,18.559C13.6132,19.5041,11.8238,20.0025,10,20C4.477,20,0,15.523,0,10C0,4.477,4.477,0,10,0ZM17,12.172L18.414,13.586C19.1815,14.3532,19.1971,15.5924,18.4493,16.3788C17.7014,17.1651,16.4629,17.2116,15.6582,16.4836C14.8535,15.7555,14.7762,14.5186,15.484,13.696L15.586,13.586L17,12.172ZM10,13C11.466,13,12.785,13.631,13.7,14.637L12.755,15.497C11.965,15.182,11.018,15,10,15C8.982,15,8.035,15.183,7.245,15.496L6.3,14.636C7.24682,13.5924,8.59093,12.9981,10,13ZM6.5,8C7.32843,8,8,8.67157,8,9.5C8,10.3284,7.32843,11,6.5,11C5.67157,11,5,10.3284,5,9.5C5,8.67157,5.67157,8,6.5,8ZM13.5,8C14.3284,8,15,8.67157,15,9.5C15,10.3284,14.3284,11,13.5,11C12.6716,11,12,10.3284,12,9.5C12,8.67157,12.6716,8,13.5,8Z" fill="#614732" fill-opacity="1"/></g></svg>