<svg xmlns="http://www.w3.org/2000/svg" xmlns:xlink="http://www.w3.org/1999/xlink" fill="none" version="1.1" width="24" height="24" viewBox="0 0 24 24"><defs><clipPath id="master_svg0_61_19"><rect x="0" y="0" width="24" height="24" rx="0"/></clipPath></defs><g clip-path="url(#master_svg0_61_19)"><g><path d="M9.33,11.499998308868408L11.5,11.499998308868408C13.9853,11.499998308868408,16,13.514678308868408,16,15.999978308868409L8.998999999999999,15.999978308868409L9,16.999978308868407L17,16.999978308868407L17,15.999978308868409C16.9968,14.935978308868409,16.6894,13.894978308868408,16.114,12.999978308868409L19,12.999978308868409C20.9293,12.999478308868408,22.6868,14.108978308868409,23.516,15.850978308868408C21.151,18.971978308868408,17.322,20.999978308868407,13,20.999978308868407C10.239,20.999978308868407,7.9,20.409978308868407,6,19.374978308868407L6,10.070998308868408C7.21661,10.245278308868407,8.36547,10.738288308868409,9.33,11.499998308868408ZM4,8.999998308868408C4.50698,9.000068308868407,4.93368,9.37950830886841,4.993,9.882998308868409L5,9.999998308868408L5,18.999978308868407C5,19.55227830886841,4.55228,19.999978308868407,4,19.999978308868407L2,19.999978308868407C1.447715,19.999978308868407,1,19.55227830886841,1,18.999978308868407L1,9.999998308868408C1,9.447718308868408,1.447715,8.999998308868408,2,8.999998308868408L4,8.999998308868408ZM13.646,3.5750003088684084L14,3.9299983088684085L14.354,3.5760003088684083C15.3292,2.592520308868408,16.918100000000003,2.5892653088684083,17.8973,3.568739308868408C18.8765,4.5482183088684085,18.8728,6.137098308868408,17.889,7.111998308868408L14,10.999998308868408L10.11,7.109998308868408C9.12654,6.134818308868408,9.1233,4.545948308868408,10.10277,3.5667613088684083C11.0822,2.587573308868408,12.6711,2.5912673088684084,13.646,3.5750003088684084Z" fill="#F2D8C2" fill-opacity="1"/></g></g></svg>